<?xml version="1.0" encoding="utf-8"?>
<!-- Generator: Adobe Illustrator 24.0.2, SVG Export Plug-In . SVG Version: 6.00 Build 0)  -->
<svg version="1.1"
	 id="svg8" xmlns:cc="http://creativecommons.org/ns#" xmlns:dc="http://purl.org/dc/elements/1.1/" xmlns:inkscape="http://www.inkscape.org/namespaces/inkscape" xmlns:rdf="http://www.w3.org/1999/02/22-rdf-syntax-ns#" xmlns:sodipodi="http://sodipodi.sourceforge.net/DTD/sodipodi-0.dtd" xmlns:svg="http://www.w3.org/2000/svg"
	 xmlns="http://www.w3.org/2000/svg" xmlns:xlink="http://www.w3.org/1999/xlink" x="0px" y="0px" viewBox="0 0 32 32"
	 style="enable-background:new 0 0 32 32;" xml:space="preserve">
<style type="text/css">
	.st0{fill:#8595A0;}
</style>
<g id="Layer_8">
	<path class="st0" d="M29,31H3c-0.6,0-1-0.4-1-1V2c0-0.6,0.4-1,1-1h26c0.6,0,1,0.4,1,1v28C30,30.6,29.5,31,29,31z M4,29h24V3H4V29z"
		/>
	<path class="st0" d="M3,25c-0.3,0-0.5-0.1-0.7-0.3c-0.4-0.4-0.4-1,0-1.4c0,0,0,0,0,0l4.8-4.8c1-1.1,2.7-1.2,3.9-0.3l4.2,3
		c0.4,0.3,0.9,0.2,1.3-0.1l4.4-4.4c1.2-1.2,3.1-1.2,4.2,0l4.6,4.6c0.4,0.4,0.4,1,0,1.4s-1,0.4-1.4,0l-4.6-4.6c-0.4-0.4-1-0.4-1.4,0
		c0,0,0,0,0,0l-4.4,4.4c-1,1-2.7,1.2-3.9,0.3l-4.2-3c-0.4-0.3-0.9-0.2-1.3,0.1l-4.8,4.8C3.5,24.9,3.3,25,3,25z"/>
	<path class="st0" d="M17,14c-2.2,0-4-1.8-4-4s1.8-4,4-4s4,1.8,4,4S19.2,14,17,14z M17,8c-1.1,0-2,0.9-2,2s0.9,2,2,2s2-0.9,2-2
		S18.1,8,17,8z"/>
</g>
</svg>
