<?xml version="1.0" encoding="utf-8"?>
<!-- Generator: Adobe Illustrator 24.0.2, SVG Export Plug-In . SVG Version: 6.00 Build 0)  -->
<svg version="1.1" id="Layer_1" xmlns="http://www.w3.org/2000/svg" xmlns:xlink="http://www.w3.org/1999/xlink" x="0px" y="0px"
	 viewBox="0 0 64 64" style="enable-background:new 0 0 64 64;" xml:space="preserve">
<style type="text/css">
	.st0{fill:#FFFFFF;}
</style>
<path class="st0" d="M62.4,54.8L42.6,35c-2.6-2.6-1.4-4.5-1.4-4.5l0,0c0.9-1.8,0.6-4-0.9-5.5l-7.7-7.7c-1.9-1.9-4.9-1.9-6.8,0
	l-1.2,1.2l-0.1,0.1c0,0-0.5,1.1,1.9,1.2l0,0c0,0,1.1,0.1,2.2,1.2l2.7,2.7c1,1,1,2,1,2.5c-0.2,1.3-0.8,2.5-1.8,3.5
	c-1,1-2.2,1.6-3.5,1.8c-0.6,0.1-1.6,0-2.8-1.2l-2.1-2.1c-1.3-1.3-1.6-3-1.6-3h0c-0.5-2.3-1.2-1.6-1.2-1.6L18.2,25
	c-1.9,1.9-1.9,4.9,0,6.8l7.7,7.7c1.6,1.6,3.9,1.8,5.8,0.8l0,0c0,0,1.7-1.1,4,1.2L56.1,62c0,0,2.5,2.4,4.8,0.1l1.9-1.9
	C63.5,59.4,64.9,57.3,62.4,54.8z"/>
<path class="st0" d="M41,52.1c-1.2-1.5-3.2-0.6-3.2-0.6l0,0c-0.2,0.1-0.3,0.1-0.5,0.2c-0.1,0-0.1,0-0.2,0.1c-2.7,1-2.7,3-2.7,3v2.4
	c0,2-1.7,2.4-2.5,2.5h-1c-2.1,0-2.5-1.2-2.5-1.9v-2.8c0-2.5-2.8-3.2-2.8-3.2l0,0c-1.5-0.5-3-1.1-4.3-1.9c-0.1,0-0.1,0-0.2-0.1
	c-2.3-1.1-4,0.5-4,0.5l-1.9,1.9c-1.4,1.4-2.4,0.7-2.7,0.4l-0.2-0.2l0,0h0l-1.6-1.6c0,0,0,0,0,0c-1.3-1.3,0.4-3,0.6-3.2l1.9-1.9
	c0,0,0,0,0,0c1.5-1.5,0.3-3.7,0.3-3.7s0,0,0,0c-0.7-1.3-1.3-2.7-1.8-4.2c0,0,0-0.1,0-0.1C10.7,35,8.2,35,8.2,35l-1.8,0
	c-2.2,0-2.6-1.4-2.6-2.1l0-1.5c0-0.6,0.2-2.4,2.4-2.4c0,0,0,0,0,0l2.4,0c0,0,2.2,0.1,3-2.3c0,0,0,0,0-0.1c0.5-1.8,1.2-3.4,2.1-4.9
	c0,0,0,0,0,0c1.1-2.3-0.5-4-0.7-4.2l-1.6-1.6c0,0,0,0,0,0c-1.6-1.6-0.5-2.9-0.1-3.3l0.8-0.8c0,0,1.8-1.9,3.6,0c0,0,0,0,0,0l1.8,1.8
	c0.3,0.3,1.8,1.5,3.8,0.5c0,0,0,0,0,0c1.3-0.7,2.7-1.3,4.2-1.8c0,0,0.1,0,0.1-0.1c2.3-0.9,2.8-2.4,2.8-3.1V6.4
	c0-0.5,0.2-2.3,2.3-2.3H32c0,0,2.4-0.1,2.4,2.6v2.1c0,0.6,0.2,2.5,2.5,3.3c0,0,0,0,0,0c1.4,0.4,2.7,0.9,3.9,1.5l0,0
	c0,0,2.8,1.8,4.9-0.4l1.4-1.4c0.1-0.1,2-1.9,3.4-0.5c0,0,0,0,0,0l1.2,1.2c0,0,1.4,1.7-0.4,3.5l-1.6,1.6c0,0-1.7,1.7-0.5,4.3
	c0,0,0,0.1,0,0.1c0.7,1.3,1.3,2.8,1.7,4.3c0,0,0,0,0,0S51.7,29,54,29l2.2,0h0.1h0.1c0.1,0,2.7,0,2.7,2.5l0,1.1v0v0.3
	c0,0.6-0.3,2.2-2.8,2.2l-2.2,0c-1.7,0-2.5,1.4-2.9,2.3c-0.1,0.4-0.5,1.6,0.7,2.8l0.3,0.3c0,0,0,0,0,0c1.8,1.9,3-0.8,3-0.8
	c0.8-1.3,2-1.6,2.6-1.6h3.3c1,0,1.8-0.8,1.8-1.8v-8.3c0-1-0.8-1.8-1.8-1.8h-3.1c-2.5,0-3.1-2.3-3.1-2.3s0,0,0,0
	c-0.4-1-0.8-2.1-1.3-3.1c0,0,0,0,0,0c-0.8-1.8,0.7-3.4,0.8-3.5l2-2c0.7-0.7,0.7-1.8,0-2.6l-5.9-5.9c-0.7-0.7-1.8-0.7-2.6,0l-1.5,1.4
	c-2.3,2.3-4.4,1.2-4.4,1.2l0,0c-0.8-0.4-1.6-0.7-2.5-1c0,0-0.1,0-0.1-0.1c-1.9-0.8-2.1-2.7-2.2-3.5V2.7c0-1-0.8-1.8-1.8-1.8h-8.7
	c-1,0-1.8,0.8-1.8,1.8v2.6c0,2.6-2.2,3-2.2,3l0,0c-1,0.3-1.9,0.7-2.8,1.2c0,0,0,0,0,0c-1.8,0.8-2.8,0-3.1-0.2l-0.1-0.1l0,0h0
	l-2.4-2.4c-0.7-0.7-1.8-0.7-2.6,0l-5.9,5.9c-0.7,0.7-0.7,1.8,0,2.6l2,2c0,0,1.7,1.6,0.9,3.5c0,0,0,0,0,0c-0.5,1-0.9,2-1.3,3
	c0,0.1,0,0.1-0.1,0.2C6.9,25.6,5.6,26,4.8,26H2c-1,0-1.8,0.8-1.8,1.8v8.3C0.2,37.2,1,38,2,38h3.2c1.8,0,2.3,1.7,2.3,1.7s0,0,0,0
	c0.4,1.2,0.8,2.3,1.3,3.4c0,0,0,0,0,0S10,45,8.7,46.2v0l-2.5,2.5c-0.7,0.7-0.7,1.8,0,2.6l5.9,5.9c0.7,0.7,1.8,0.7,2.6,0l2.3-2.3l0,0
	l0.1-0.1c0.3-0.3,1.4-1.1,3.5-0.2c0,0,0,0,0.1,0c0.8,0.4,1.6,0.7,2.5,1l0,0c0,0,2.2,0.7,2.2,2.9v2.7c0,1,0.8,1.8,1.8,1.8h8.7
	c1,0,1.8-0.8,1.8-1.8v-3c0-0.7,0.3-1.9,1.9-2.5c0.1,0,0.1,0,0.1-0.1c0.6-0.2,1.2-0.5,1.8-0.7c1.4-0.8,0.1-2.4,0.1-2.4L41,52.1z"/>
</svg>
