<?xml version="1.0" encoding="utf-8"?>
<!-- Generator: Adobe Illustrator 24.0.2, SVG Export Plug-In . SVG Version: 6.00 Build 0)  -->
<svg version="1.1" id="Layer_1" xmlns="http://www.w3.org/2000/svg" xmlns:xlink="http://www.w3.org/1999/xlink" x="0px" y="0px"
	 viewBox="0 0 64 64" style="enable-background:new 0 0 64 64;" xml:space="preserve">
<style type="text/css">
	.st0{fill:#FFFFFF;}
</style>
<g>
	<path class="st0" d="M33.5,33.8v10c1.5-0.3,2.7-0.9,3.6-1.9c0.8-0.9,1.3-2,1.3-3.3c0-1.3-0.4-2.4-1.2-3.1
		C36.3,34.9,35.1,34.3,33.5,33.8z"/>
	<path class="st0" d="M26.5,22.6c0,1.2,0.3,2.1,1,2.7c0.7,0.6,1.7,1.2,3.1,1.7v-8.8c-1.3,0.4-2.3,0.9-3,1.5
		C26.9,20.4,26.5,21.3,26.5,22.6z"/>
	<path class="st0" d="M32,0.3C14.5,0.3,0.3,14.5,0.3,32S14.5,63.7,32,63.7S63.7,49.5,63.7,32S49.5,0.3,32,0.3z M42.8,42.9
		c-0.8,1.5-2,2.8-3.6,3.7c-1.6,1-3.5,1.5-5.7,1.7V54c0,0.9-0.1,1.6-0.3,2s-0.6,0.6-1.2,0.6c-0.5,0-0.9-0.2-1.2-0.5
		c-0.2-0.3-0.3-0.9-0.3-1.6v-6.2c-1.8-0.2-3.3-0.6-4.7-1.3s-2.5-1.4-3.3-2.4c-0.9-1-1.6-1.9-2-3c-0.4-1-0.6-2-0.6-3
		c0-0.7,0.3-1.4,0.9-2s1.3-0.9,2.1-0.9c0.7,0,1.3,0.2,1.7,0.5c0.5,0.3,0.8,0.8,1,1.4c0.4,1.3,0.8,2.2,1.1,2.9
		c0.3,0.7,0.8,1.3,1.4,1.8c0.6,0.5,1.4,1,2.5,1.3V33c-2-0.6-3.8-1.2-5.1-1.9c-1.4-0.7-2.5-1.7-3.3-3c-0.9-1.3-1.3-2.9-1.3-4.9
		c0-2.6,0.8-4.8,2.5-6.5c1.7-1.7,4.1-2.7,7.2-2.9v-2.4c0-1.3,0.5-1.9,1.4-1.9c1,0,1.5,0.6,1.5,1.9v2.5c1.6,0.2,3,0.5,4.2,1
		c1.2,0.5,2.2,1.3,3.1,2.3c0.7,0.8,1.2,1.6,1.6,2.4c0.4,0.8,0.6,1.6,0.6,2.3c0,0.8-0.3,1.4-0.8,2c-0.6,0.6-1.2,0.8-2,0.8
		c-1.5,0-2.5-0.8-2.9-2.4c-0.5-1.9-1.7-3.2-3.6-3.8v9.5c1.9,0.5,3.4,1,4.5,1.4s2.1,1,3,1.9c0.9,0.8,1.7,1.8,2.2,3
		c0.5,1.2,0.8,2.4,0.8,3.8C44,39.7,43.6,41.3,42.8,42.9z"/>
</g>
</svg>
