<?xml version="1.0" encoding="utf-8"?>
<!-- Generator: Adobe Illustrator 24.0.2, SVG Export Plug-In . SVG Version: 6.00 Build 0)  -->
<svg version="1.1"
	 id="svg8" xmlns:cc="http://creativecommons.org/ns#" xmlns:dc="http://purl.org/dc/elements/1.1/" xmlns:inkscape="http://www.inkscape.org/namespaces/inkscape" xmlns:rdf="http://www.w3.org/1999/02/22-rdf-syntax-ns#" xmlns:sodipodi="http://sodipodi.sourceforge.net/DTD/sodipodi-0.dtd" xmlns:svg="http://www.w3.org/2000/svg"
	 xmlns="http://www.w3.org/2000/svg" xmlns:xlink="http://www.w3.org/1999/xlink" x="0px" y="0px" viewBox="0 0 32 32"
	 style="enable-background:new 0 0 32 32;" xml:space="preserve">
<style type="text/css">
	.st0{fill:#8595A0;}
</style>
<g id="layer1" transform="translate(0,-288.53332)">
	<path id="path935" class="st0" d="M10.5,304.6c-5.5,2.2-9.5,7.6-9.5,13.9c0,0.6,0.4,1,1,1c0,0,0,0,0,0h28c0.6,0,1-0.5,1-1
		c0-6.3-3.9-11.7-9.5-13.9c-1.5,1.2-3.5,1.9-5.5,1.9C13.9,306.5,12,305.8,10.5,304.6z"/>
	<path id="path940" class="st0" d="M16,289.5c-4.4,0-8,3.6-8,8c0,4.4,3.6,8,8,8s8-3.6,8-8C24,293.1,20.4,289.5,16,289.5z"/>
</g>
</svg>
