<?xml version="1.0" encoding="utf-8"?>
<!-- Generator: Adobe Illustrator 24.0.2, SVG Export Plug-In . SVG Version: 6.00 Build 0)  -->
<svg version="1.1" id="Layer_1" xmlns="http://www.w3.org/2000/svg" xmlns:xlink="http://www.w3.org/1999/xlink" x="0px" y="0px"
	 viewBox="0 0 64 64" style="enable-background:new 0 0 64 64;" xml:space="preserve">
<style type="text/css">
	.st0{fill:#FFFFFF;}
</style>
<path class="st0" d="M62.5,36.9L49.1,23.5c-1.8-1.8-0.9-3-0.9-3c0.6-1.2,0.4-2.7-0.6-3.7l-5.2-5.2c-1.3-1.3-3.3-1.3-4.6,0l-0.8,0.8
	l-0.1,0.1c0,0-0.3,0.7,1.3,0.8c0,0,0.7,0.1,1.5,0.8l1.8,1.8c0.7,0.7,0.7,1.4,0.7,1.7c-0.1,0.9-0.5,1.7-1.2,2.4
	c-0.5,0.5-1.1,0.9-1.8,1.1l-1-1.7c0,0-0.4-0.7-0.7-1.2c-0.1-0.2-0.3-0.4-0.7-0.4h-2.2c-0.2-0.5-0.3-0.9-0.3-0.9
	c-0.3-1.6-0.8-1.1-0.8-1.1l-0.7,0.9c-0.3,0.3-0.5,0.6-0.7,1h-3.8c0.3-1.2,0.8-2.2,1.4-3.2c0.7-1.6-0.3-2.7-0.5-2.8L28,10.6
	c-1.1-1.1-0.3-2-0.1-2.2l0.5-0.5c0,0,1.2-1.3,2.4,0l1.2,1.2c0.2,0.2,1.2,1,2.6,0.3c0.9-0.5,1.8-0.9,2.8-1.2c0,0,0.1,0,0.1-0.1
	c1.6-0.6,1.9-1.6,1.9-2.1V4.2c0-0.3,0.1-1.6,1.6-1.6h0.9c0,0,1.6-0.1,1.6,1.8v1.4c0,0.4,0.1,1.7,1.7,2.2c0.9,0.3,1.8,0.6,2.6,1
	c0,0,1.9,1.2,3.3-0.3l0.9-0.9c0.1-0.1,1.4-1.3,2.3-0.3l0.8,0.8c0,0,0.9,1.2-0.3,2.4l-1.1,1.1c0,0-1.2,1.2-0.3,2.9v0.1
	c0.5,0.9,0.9,1.9,1.2,2.9c0,0,0.5,1.8,2.1,1.8h1.5h0.1h0.1c0.1,0,1.8,0,1.8,1.7v0.7v0.2c0,0.4-0.2,1.5-1.9,1.5h-1.5
	c-1.2,0-1.7,0.9-2,1.6c-0.1,0.3-0.3,1.1,0.5,1.9l0.2,0.2c1.2,1.3,2-0.5,2-0.5c0.5-0.9,1.4-1.1,1.8-1.1h2.2c0.7,0,1.2-0.5,1.2-1.2
	v-5.6c0-0.7-0.5-1.2-1.2-1.2h-2.1c-1.7,0-2.1-1.6-2.1-1.6c-0.3-0.7-0.5-1.4-0.9-2.1C56,12.7,57,11.6,57,11.6l1.4-1.4
	c0.5-0.5,0.5-1.2,0-1.8l-4-4c-0.5-0.5-1.2-0.5-1.8,0l-1,0.9c-1.6,1.6-3,0.8-3,0.8C48.1,6,47.6,5.8,47,5.6c0,0-0.1,0-0.1-0.1
	c-1.3-0.5-1.4-1.8-1.5-2.4V1.7c0-0.7-0.5-1.2-1.2-1.2h-5.9c-0.7,0-1.2,0.5-1.2,1.2v1.8c0,1.8-1.5,2-1.5,2c-0.7,0.2-1.3,0.5-1.9,0.8
	c-1.2,0.5-1.9,0-2.1-0.1l-0.1-0.1l-1.6-1.6c-0.5-0.5-1.2-0.5-1.8,0l-4,4c-0.5,0.5-0.5,1.2,0,1.8l1.4,1.4c0,0,1.2,1.1,0.6,2.4
	c-0.3,0.7-0.6,1.4-0.9,2c0,0.1,0,0.1-0.1,0.1c-0.3,1.1-1.2,1.4-1.7,1.4h-1.9c-0.3,0-0.6,0.1-0.8,0.3c-3.2,0-6.8,0-6.8,0
	s-0.5,0-1.2,1.1c-0.6,0.9-8.2,14.2-10,17.2c-1.2,0.2-2.2,1.4-2.2,2.9v13.6c0,1.6,1.2,3,2.6,3h2.6v6.5c0,0.8,0.5,1.5,1.2,1.5h4.2
	c0.6,0,1.2-0.6,1.2-1.5v-6.5h26.3v6.6c0,0.8,0.5,1.5,1.2,1.5h4.1c0.6,0,1.2-0.6,1.2-1.5v-6.6h2.6c1.5,0,2.6-1.3,2.6-3V39
	c-0.1-1.2-0.7-2.2-1.6-2.6c0-0.5-0.4-1-0.4-1L48,35.1c-0.2-0.3-0.5-0.4-0.8-0.5L42.6,27c0.5,0,1.1,0.3,1.8,1l13.8,13.9
	c0,0,1.7,1.6,3.2,0.1l1.3-1.3C63.2,40.1,64.2,38.6,62.5,36.9z M10.4,50.3c-2.5,0-4.5-2-4.5-4.5s2-4.5,4.5-4.5s4.5,2,4.5,4.5
	S12.9,50.3,10.4,50.3z M40.6,50.3c-2.5,0-4.5-2-4.5-4.5c0-1.5,0.7-2.8,1.8-3.6c0.2,0.2,0.4,0.3,0.7,0.3h5c0.9,0.8,1.5,2,1.5,3.3
	C45.1,48.3,43.1,50.3,40.6,50.3z M5.8,36l8.7-15c0,0,0.3-0.6,1.8-0.6h7.3h1.6c0,0,0.1,0,0.2,0h9.3c0.4,0.1,1,0.2,1.4,0.9L45,36H5.8z
	"/>
</svg>
