<?xml version="1.0" encoding="utf-8"?>
<!-- Generator: Adobe Illustrator 24.0.2, SVG Export Plug-In . SVG Version: 6.00 Build 0)  -->
<svg version="1.1" id="Layer_1" xmlns="http://www.w3.org/2000/svg" xmlns:xlink="http://www.w3.org/1999/xlink" x="0px" y="0px"
	 viewBox="0 0 64 64" style="enable-background:new 0 0 64 64;" xml:space="preserve">
<style type="text/css">
	.st0{fill:#FFFFFF;}
</style>
<path class="st0" d="M61.8,26.3C61.7,26.3,61.7,26.2,61.8,26.3c-0.8-0.5-1.1-1-1.1-1L48.2,4.5c0,0-0.5-0.9-0.9-1.5
	c-0.1-0.2-0.4-0.5-0.9-0.5H32.6c-0.3,0-1.5,0-3.1,0c-4.5,0-12.3,0-12.3,0s-0.7,0-1.5,1.4C14.9,5.1,5.1,22.2,2.8,26.1
	C1.2,26.3,0,27.9,0,29.8v17.5c0,2.1,1.5,3.8,3.4,3.8h3.4v8.4c0,1,0.7,1.9,1.5,1.9h5.4c0.8,0,1.5-0.8,1.5-1.9v-8.4h33.8v8.5
	c0,1,0.7,1.9,1.5,1.9h5.3c0.8,0,1.5-0.8,1.5-1.9v-8.5h3.4c1.9,0,3.4-1.7,3.4-3.8V29.8C64,28.2,63.1,26.8,61.8,26.3z M17.9,6.7
	c0,0,0.4-0.8,2.3-0.8h9.4h2.1c0,0,0.1,0,0.3,0h12c0.5,0.1,1.3,0.3,1.8,1.2L57.1,26H6.7L17.9,6.7z M12.6,44.4c-3.2,0-5.8-2.6-5.8-5.8
	s2.6-5.8,5.8-5.8s5.8,2.6,5.8,5.8S15.8,44.4,12.6,44.4z M51.5,44.4c-3.2,0-5.8-2.6-5.8-5.8s2.6-5.8,5.8-5.8s5.8,2.6,5.8,5.8
	S54.7,44.4,51.5,44.4z"/>
</svg>
