<?xml version="1.0" encoding="utf-8"?>
<!-- Generator: Adobe Illustrator 24.0.2, SVG Export Plug-In . SVG Version: 6.00 Build 0)  -->
<svg version="1.1" id="Layer_1" xmlns="http://www.w3.org/2000/svg" xmlns:xlink="http://www.w3.org/1999/xlink" x="0px" y="0px"
	 viewBox="0 0 64 64" style="enable-background:new 0 0 64 64;" xml:space="preserve">
<style type="text/css">
	.st0{fill:#FFFFFF;}
</style>
<g>
	<g>
		<g>
			<path class="st0" d="M32,5.4c14.7,0,26.6,12,26.6,26.6S46.7,58.6,32,58.6S5.4,46.7,5.4,32S17.3,5.4,32,5.4 M32,0.4
				C14.5,0.4,0.4,14.5,0.4,32S14.5,63.6,32,63.6S63.6,49.5,63.6,32S49.5,0.4,32,0.4L32,0.4z"/>
		</g>
	</g>
	<g>
		<path class="st0" d="M33.3,14.2v2.1c1.4,0.1,2.6,0.4,3.6,0.9c1,0.4,1.9,1.1,2.7,2c0.6,0.7,1.1,1.4,1.4,2.1c0.3,0.7,0.5,1.4,0.5,2
			c0,0.7-0.2,1.2-0.7,1.7c-0.5,0.5-1.1,0.7-1.8,0.7c-1.3,0-2.1-0.7-2.5-2.1c-0.4-1.7-1.5-2.8-3.2-3.3v8.3c1.6,0.5,2.9,0.9,3.9,1.2
			c1,0.4,1.8,0.9,2.6,1.6c0.8,0.7,1.5,1.6,1.9,2.6c0.4,1,0.7,2.1,0.7,3.3c0,1.5-0.4,2.9-1.1,4.2s-1.8,2.4-3.1,3.2
			c-1.4,0.8-3,1.3-4.9,1.5v4.9c0,0.8-0.1,1.4-0.2,1.7c-0.2,0.4-0.5,0.5-1,0.5c-0.5,0-0.8-0.1-1-0.4c-0.2-0.3-0.3-0.7-0.3-1.4v-5.4
			c-1.5-0.2-2.9-0.5-4.1-1.1c-1.2-0.6-2.1-1.2-2.9-2.1s-1.3-1.7-1.7-2.6c-0.4-0.9-0.6-1.8-0.6-2.6c0-0.6,0.2-1.2,0.7-1.7
			c0.5-0.5,1.1-0.8,1.9-0.8c0.6,0,1.1,0.1,1.5,0.4c0.4,0.3,0.7,0.7,0.9,1.2c0.4,1.1,0.7,1.9,0.9,2.5c0.3,0.6,0.7,1.1,1.2,1.6
			s1.2,0.8,2.1,1.1V33c-1.8-0.5-3.3-1-4.4-1.6c-1.2-0.6-2.2-1.5-2.9-2.6c-0.7-1.1-1.1-2.5-1.1-4.3c0-2.3,0.7-4.1,2.2-5.6
			c1.4-1.5,3.5-2.3,6.3-2.5v-2.1c0-1.1,0.4-1.7,1.3-1.7C32.9,12.5,33.3,13.1,33.3,14.2z M30.8,27.8v-7.6c-1.1,0.3-2,0.8-2.6,1.3
			c-0.6,0.5-0.9,1.4-0.9,2.5c0,1,0.3,1.8,0.9,2.4S29.6,27.4,30.8,27.8z M33.3,33.7v8.7c1.3-0.3,2.4-0.8,3.1-1.6
			c0.7-0.8,1.1-1.7,1.1-2.8c0-1.2-0.4-2-1.1-2.7C35.8,34.7,34.7,34.1,33.3,33.7z"/>
	</g>
</g>
</svg>
