<?xml version="1.0" encoding="utf-8"?>
<!-- Generator: Adobe Illustrator 24.0.2, SVG Export Plug-In . SVG Version: 6.00 Build 0)  -->
<svg version="1.1" id="Layer_1" xmlns="http://www.w3.org/2000/svg" xmlns:xlink="http://www.w3.org/1999/xlink" x="0px" y="0px"
	 viewBox="0 0 64 64" style="enable-background:new 0 0 64 64;" xml:space="preserve">
<style type="text/css">
	.st0{fill:#FFFFFF;}
</style>
<path class="st0" d="M32,0.5C14.6,0.5,0.5,14.6,0.5,32S14.6,63.5,32,63.5S63.5,49.4,63.5,32S49.4,0.5,32,0.5z M32.7,46L32.7,46
	l-3.9,4.7c-0.3,0.4-0.9,0.4-1.3,0.1L9.8,35.9c-0.4-0.3-0.4-0.9-0.1-1.3l3.3-4c0.3-0.4,0.9-0.4,1.3-0.1l12.3,10.3
	c0.4,0.3,1,0.3,1.3-0.1L49,15.6c0.3-0.4,0.9-0.4,1.3-0.1l4,3.3c0.4,0.3,0.4,0.9,0.1,1.3L32.7,46z"/>
</svg>
